<?xml version="1.0" standalone="no"?>
<!DOCTYPE svg PUBLIC "-//W3C//DTD SVG 20010904//EN"
 "http://www.w3.org/TR/2001/REC-SVG-20010904/DTD/svg10.dtd">
<svg version="1.0" xmlns="http://www.w3.org/2000/svg"
 width="31.88" height="32" viewBox="0 0 256 257" preserveAspectRatio="xMidYMid meet">
  <g fill="#358156">
    <path d="M1044 6670 c-122 -25 -211 -106 -245 -225 -13 -43 -12 -2567 1 -2614
    16 -62 72 -126 137 -158 56 -27 63 -28 246 -31 223 -4 274 7 346 73 85 77 86
    86 83 441 -3 288 -2 311 15 326 16 14 61 17 333 21 308 4 317 4 410 31 451
    131 739 482 791 963 37 349 -120 743 -384 961 -117 97 -241 161 -383 197 -62
    16 -133 19 -689 21 -341 1 -638 -1 -661 -6z m1343 -420 c44 -26 56 -54 50
    -113 l-4 -49 -359 -360 c-198 -197 -367 -364 -377 -369 -9 -5 -23 -6 -31 -2
    -7 4 -90 82 -185 173 -117 113 -174 175 -182 198 -25 77 23 150 105 159 68 8
    87 -1 167 -75 92 -86 111 -97 142 -81 12 6 137 125 277 264 140 139 264 257
    275 263 31 17 87 14 122 -8z m202 -594 c9 -10 11 -121 9 -409 l-3 -395 -31
    -39 c-58 -73 -207 -156 -233 -130 -15 15 -16 940 -1 968 10 17 22 19 129 19
    89 0 121 -3 130 -14z m-513 -428 c22 -21 38 -48 44 -73 5 -22 10 -136 10 -253
    0 -213 0 -213 -25 -237 -22 -23 -31 -25 -121 -25 -143 0 -134 -19 -134 279 0
    224 2 249 19 275 29 44 70 66 124 66 40 0 53 -5 83 -32z m-487 -182 c13 -6 34
    -24 45 -39 19 -25 21 -45 24 -182 4 -190 8 -185 -147 -185 -145 0 -141 -4
    -141 173 0 153 10 192 57 223 53 34 105 38 162 10z"/>
  </g>
</svg>
