<svg xmlns="http://www.w3.org/2000/svg" xmlns:xlink="http://www.w3.org/1999/xlink" version="1.1" id="Layer_1" x="0px" y="0px" width="100%" viewBox="0 0 1024 1024" enable-background="new 0 0 1024 1024" xml:space="preserve">
<path fill="#358156" opacity="1.000000" stroke="none" d=" M354.585785,653.410706   C356.732971,655.650757 359.479462,656.821167 360.810730,659.442444   C359.440765,660.948242 357.849182,660.387085 356.444824,660.388855   C325.790894,660.427063 295.136932,660.429016 264.482971,660.429688   C247.667084,660.430054 230.849548,660.283447 214.036423,660.494690   C209.496521,660.551697 207.776260,659.206482 207.998566,654.539856   C208.354706,647.062744 208.233810,639.560059 208.196808,632.068665   C208.184082,629.492371 209.215393,627.740356 211.201065,626.149902   C241.622482,601.783936 272.014313,577.380920 302.361755,552.922974   C304.444031,551.244812 306.618500,550.624268 309.204681,550.455505   C331.714844,548.986694 349.567017,539.298157 360.821503,519.458252   C372.338654,499.155212 372.956818,477.982300 361.721558,457.472687   C350.495972,436.980682 332.411591,426.540741 308.978973,426.311340   C275.734924,425.985840 250.125931,448.951141 246.421112,482.136383   C246.042389,485.528839 244.965668,486.221863 241.684799,485.710358   C230.680389,483.994598 219.635422,482.518097 208.580444,481.157715   C204.234970,480.622986 202.950836,478.952454 203.540161,474.364777   C208.256226,437.652252 224.801331,409.061157 259.478394,393.275330   C278.835388,384.463623 299.517700,382.506653 320.561401,384.193115   C331.211395,385.046600 341.663696,387.051117 351.709442,390.827759   C382.964661,402.577850 401.724792,425.166016 407.137115,457.813965   C413.882904,498.505707 399.949554,531.726990 367.899872,557.494080   C345.576935,575.441162 323.272675,593.411438 300.972290,611.386475   C299.966156,612.197510 298.613159,612.708801 298.241821,614.209778   C299.082825,615.626892 300.534882,615.437256 301.775391,615.335327   C311.590942,614.528931 321.414673,616.419189 331.224548,615.204712   C335.266571,614.704224 336.986389,616.088257 337.484985,620.567505   C338.920593,633.465454 345.079468,644.180115 354.585785,653.410706  z"/>



<path fill="#358156" opacity="1.000000" stroke="none" d=" M303.264954,435.842102   C331.841431,435.129517 354.223206,452.351624 358.887817,479.257751   C364.581940,512.101990 342.335846,537.798889 313.168762,541.600708   C286.183594,545.118042 253.830292,524.283508 254.251144,488.340485   C254.580032,460.252136 273.760071,440.053345 303.264954,435.842102  M299.091248,534.648804   C303.742920,535.081360 308.397308,535.198303 313.060425,534.824524   C332.373535,533.276855 350.753174,515.688049 352.654877,496.924042   C354.678528,476.956726 341.061035,458.622925 320.841583,454.092499   C300.395477,449.511292 280.630249,460.066589 273.892731,479.227570   C273.009399,481.739624 272.427368,484.056396 268.806519,482.696930   C265.264069,481.366882 266.707458,479.174835 267.475800,477.044159   C273.936157,459.128571 291.297607,446.963074 310.368103,446.625214   C317.641327,446.496338 324.508331,448.274048 331.399536,450.224945   C316.203125,439.772156 297.642242,439.925354 281.758392,450.347656   C266.350616,460.457550 258.119568,479.283020 261.757050,497.164032   C265.860809,517.337341 278.524902,529.439636 299.091248,534.648804  z"/>

<path fill="#358156" opacity="1.000000" stroke="none" d=" M440.019775,597.331787   C446.919586,624.771118 435.796997,648.509521 411.869995,658.057251   C381.982117,669.983459 350.276337,651.490356 345.472504,619.329407   C341.000824,589.392273 364.762878,562.358337 394.925018,563.911194   C416.798401,565.037292 431.960297,576.330750 440.019775,597.331787  M427.273529,638.742981   C437.556793,624.251099 439.054291,608.756775 430.969574,593.073547   C422.992432,577.598938 409.282715,570.351440 392.129761,570.542725   C384.828674,570.624146 377.105621,571.307007 372.180054,578.561462   C355.182037,603.596680 369.475891,639.699524 399.431152,646.628723   C409.635162,648.989075 419.769287,649.477600 427.273529,638.742981  M355.086884,628.448425   C360.570160,645.413025 381.441345,659.622864 401.532227,653.612488   C383.818573,649.597473 370.507935,640.162537 362.967499,623.758301   C360.667084,618.753662 357.942047,617.781677 353.298950,620.131348   C352.564178,622.904663 354.021729,625.263062 355.086884,628.448425  M358.148956,601.693848   C358.608765,597.663147 359.068542,593.632507 359.574219,589.199585   C354.746277,594.691345 351.740570,603.897827 352.112610,611.528625   C352.198547,613.291565 351.851593,615.547974 354.697754,615.299927   C356.923126,615.106201 359.029327,614.536926 358.737701,611.471558   C358.456024,608.510620 358.302094,605.537659 358.148956,601.693848  z"/>

<path fill="#358156" opacity="1.000000" stroke="none" d=" M399.469666,641.919739   C385.987885,637.810364 377.188080,629.433472 372.487335,616.527527   C375.434570,614.688049 378.138611,615.653015 380.709320,615.595764   C389.502869,615.400024 398.310730,616.019043 407.093567,615.190918   C410.740845,614.846985 412.235199,616.408264 412.138916,620.059814   C411.990143,625.702148 412.132690,631.351501 412.074707,636.997070   C412.015686,642.745056 410.963074,643.669189 405.249542,643.020325   C403.440063,642.814941 401.657104,642.376099 399.469666,641.919739  z"/>
</svg>