<svg version="1.1" id="Layer_1" xmlns="http://www.w3.org/2000/svg" xmlns:xlink="http://www.w3.org/1999/xlink" x="0px" y="0px"
	 width="100%" viewBox="0 0 1024 1024" enable-background="new 0 0 1024 1024" xml:space="preserve">
<path fill="#FFFFFF" opacity="1.000000" stroke="none" 
	d="
M354.585785,653.410706 
	C356.732971,655.650757 359.479462,656.821167 360.810730,659.442444 
	C359.440765,660.948242 357.849182,660.387085 356.444824,660.388855 
	C325.790894,660.427063 295.136932,660.429016 264.482971,660.429688 
	C247.667084,660.430054 230.849548,660.283447 214.036423,660.494690 
	C209.496521,660.551697 207.776260,659.206482 207.998566,654.539856 
	C208.354706,647.062744 208.233810,639.560059 208.196808,632.068665 
	C208.184082,629.492371 209.215393,627.740356 211.201065,626.149902 
	C241.622482,601.783936 272.014313,577.380920 302.361755,552.922974 
	C304.444031,551.244812 306.618500,550.624268 309.204681,550.455505 
	C331.714844,548.986694 349.567017,539.298157 360.821503,519.458252 
	C372.338654,499.155212 372.956818,477.982300 361.721558,457.472687 
	C350.495972,436.980682 332.411591,426.540741 308.978973,426.311340 
	C275.734924,425.985840 250.125931,448.951141 246.421112,482.136383 
	C246.042389,485.528839 244.965668,486.221863 241.684799,485.710358 
	C230.680389,483.994598 219.635422,482.518097 208.580444,481.157715 
	C204.234970,480.622986 202.950836,478.952454 203.540161,474.364777 
	C208.256226,437.652252 224.801331,409.061157 259.478394,393.275330 
	C278.835388,384.463623 299.517700,382.506653 320.561401,384.193115 
	C331.211395,385.046600 341.663696,387.051117 351.709442,390.827759 
	C382.964661,402.577850 401.724792,425.166016 407.137115,457.813965 
	C413.882904,498.505707 399.949554,531.726990 367.899872,557.494080 
	C345.576935,575.441162 323.272675,593.411438 300.972290,611.386475 
	C299.966156,612.197510 298.613159,612.708801 298.241821,614.209778 
	C299.082825,615.626892 300.534882,615.437256 301.775391,615.335327 
	C311.590942,614.528931 321.414673,616.419189 331.224548,615.204712 
	C335.266571,614.704224 336.986389,616.088257 337.484985,620.567505 
	C338.920593,633.465454 345.079468,644.180115 354.585785,653.410706 
z"/>
<path fill="#FFFFFF" opacity="1.000000" stroke="none" 
	d="
M507.738831,470.722107 
	C524.473145,472.710754 538.138062,479.096466 547.526917,493.771729 
	C543.987610,496.672974 540.687927,499.401001 537.361938,502.096497 
	C534.956238,504.046143 533.812683,501.951721 532.519836,500.501892 
	C524.597168,491.617218 514.890625,486.447266 502.809448,486.307922 
	C482.369629,486.072174 466.684143,498.381134 461.943268,518.320740 
	C457.311768,537.800354 464.414978,556.804199 480.103546,566.906311 
	C496.317627,577.346680 519.354126,574.318726 532.054565,559.748474 
	C534.937500,556.441162 536.994690,556.051636 540.171509,559.004211 
	C542.457581,561.128845 545.181335,562.782532 548.128235,564.954712 
	C543.979187,572.135559 538.278442,577.353455 531.507141,581.254639 
	C495.489990,602.005493 444.226196,580.524353 443.577484,531.563416 
	C443.284424,509.444702 450.977570,491.476044 469.934174,479.321320 
	C481.243713,472.069763 493.974762,469.897797 507.738831,470.722107 
z"/>
<path fill="#FFFFFF" opacity="1.000000" stroke="none" 
	d="
M594.500610,588.028870 
	C579.530701,585.640625 568.106445,578.884216 561.440002,565.260803 
	C553.930786,549.914917 557.406433,527.875549 569.171021,516.413940 
	C581.994385,503.920776 602.898621,500.816986 618.798401,509.203247 
	C635.120544,517.812256 639.479797,535.227783 638.885925,548.315430 
	C638.715576,552.067932 636.342957,552.337219 633.396057,552.327332 
	C615.902039,552.268677 598.407532,552.282288 580.913391,552.318176 
	C578.954956,552.322205 576.913696,551.862488 575.061951,552.894470 
	C574.107117,562.531799 585.118286,571.872986 593.464111,573.580505 
	C603.512634,575.636536 612.802673,573.867432 620.437866,566.778870 
	C623.535706,563.902832 625.741577,563.464050 628.719604,566.563782 
	C630.414185,568.327637 632.535767,569.681152 634.817932,571.500854 
	C624.301575,584.575195 610.936218,589.450378 594.500610,588.028870 
M602.143921,519.115540 
	C586.848022,518.204712 575.614746,526.340942 574.866089,538.872925 
	C579.247498,540.280090 618.043701,540.237427 622.151855,538.820923 
	C621.424744,528.458679 614.512207,521.369019 602.143921,519.115540 
z"/>
<path fill="#FFFFFF" opacity="1.000000" stroke="none" 
	d="
M656.037354,539.000000 
	C656.046875,529.669617 656.176147,520.836853 656.008118,512.009827 
	C655.930420,507.927490 657.437988,506.097046 661.569946,506.623291 
	C662.389099,506.727631 663.251892,506.739502 664.064209,506.607391 
	C669.007935,505.803223 672.210205,506.960388 671.627686,512.883179 
	C671.541199,513.762817 672.182739,514.714172 672.692078,516.248840 
	C675.937439,513.314697 678.525574,510.269867 682.073853,508.404297 
	C704.436462,496.646606 728.009277,510.411407 728.323242,535.581726 
	C728.510193,550.574463 728.224365,565.573242 728.422668,580.565674 
	C728.478943,584.822266 727.307739,586.517395 722.800232,586.380920 
	C710.838318,586.018982 712.122314,587.576233 712.059937,575.639282 
	C711.997253,563.643494 712.123413,551.645752 711.960022,539.651672 
	C711.790649,527.223267 706.180847,520.323669 695.848450,519.401001 
	C684.423767,518.380798 675.147583,525.545288 673.239319,537.342896 
	C671.313782,549.247192 672.775818,561.286499 672.375793,573.258240 
	C672.353577,573.923889 672.388428,574.591431 672.371765,575.257446 
	C672.062561,587.636780 674.514771,586.073364 661.139282,586.362549 
	C657.047668,586.450989 656.009460,584.675537 656.035706,580.986511 
	C656.134155,567.158386 656.050720,553.328918 656.037354,539.000000 
z"/>
<path fill="#FFFFFF" opacity="1.000000" stroke="none" 
	d="
M303.264954,435.842102 
	C331.841431,435.129517 354.223206,452.351624 358.887817,479.257751 
	C364.581940,512.101990 342.335846,537.798889 313.168762,541.600708 
	C286.183594,545.118042 253.830292,524.283508 254.251144,488.340485 
	C254.580032,460.252136 273.760071,440.053345 303.264954,435.842102 
M299.091248,534.648804 
	C303.742920,535.081360 308.397308,535.198303 313.060425,534.824524 
	C332.373535,533.276855 350.753174,515.688049 352.654877,496.924042 
	C354.678528,476.956726 341.061035,458.622925 320.841583,454.092499 
	C300.395477,449.511292 280.630249,460.066589 273.892731,479.227570 
	C273.009399,481.739624 272.427368,484.056396 268.806519,482.696930 
	C265.264069,481.366882 266.707458,479.174835 267.475800,477.044159 
	C273.936157,459.128571 291.297607,446.963074 310.368103,446.625214 
	C317.641327,446.496338 324.508331,448.274048 331.399536,450.224945 
	C316.203125,439.772156 297.642242,439.925354 281.758392,450.347656 
	C266.350616,460.457550 258.119568,479.283020 261.757050,497.164032 
	C265.860809,517.337341 278.524902,529.439636 299.091248,534.648804 
z"/>
<path fill="#FFFFFF" opacity="1.000000" stroke="none" 
	d="
M828.395935,588.130615 
	C819.618408,586.860657 811.763245,584.346130 804.585754,579.842102 
	C801.193176,577.713196 799.713623,575.410645 803.037598,571.977783 
	C803.828125,571.161377 804.406860,570.070801 804.861877,569.011353 
	C806.338867,565.572693 808.015564,565.290161 811.302673,567.412903 
	C820.048645,573.060852 829.543335,576.329529 840.164185,573.769531 
	C844.102966,572.820129 847.241272,570.848816 847.842834,566.333130 
	C848.489319,561.480469 846.200623,558.491333 841.971802,556.465393 
	C835.170044,553.206909 827.721741,551.902222 820.737000,549.221252 
	C812.386902,546.016113 805.900879,541.153809 804.277527,531.551575 
	C802.692627,522.177490 807.295105,512.216370 815.971375,508.305481 
	C830.805298,501.618988 845.201172,504.367310 859.245972,511.120392 
	C861.536804,512.221924 861.924255,513.892822 860.497314,515.997986 
	C860.218018,516.410156 859.986145,516.855652 859.747742,517.294006 
	C855.896057,524.377380 855.910828,524.341858 848.324036,521.363708 
	C842.529114,519.088989 836.537781,517.844666 830.268738,518.350037 
	C824.586792,518.808105 820.863647,521.544617 820.235046,525.642517 
	C819.388794,531.159668 822.502014,534.151978 827.100342,535.789917 
	C834.144531,538.299011 841.401306,540.223328 848.402344,542.838806 
	C860.947266,547.525269 866.660034,558.375000 863.279602,570.601440 
	C860.970581,578.953003 854.829102,583.505493 847.086365,586.205505 
	C841.192261,588.260925 835.048340,588.622681 828.395935,588.130615 
z"/>
<path fill="#FFFFFF" opacity="1.000000" stroke="none" 
	d="
M440.019775,597.331787 
	C446.919586,624.771118 435.796997,648.509521 411.869995,658.057251 
	C381.982117,669.983459 350.276337,651.490356 345.472504,619.329407 
	C341.000824,589.392273 364.762878,562.358337 394.925018,563.911194 
	C416.798401,565.037292 431.960297,576.330750 440.019775,597.331787 
M427.273529,638.742981 
	C437.556793,624.251099 439.054291,608.756775 430.969574,593.073547 
	C422.992432,577.598938 409.282715,570.351440 392.129761,570.542725 
	C384.828674,570.624146 377.105621,571.307007 372.180054,578.561462 
	C355.182037,603.596680 369.475891,639.699524 399.431152,646.628723 
	C409.635162,648.989075 419.769287,649.477600 427.273529,638.742981 
M355.086884,628.448425 
	C360.570160,645.413025 381.441345,659.622864 401.532227,653.612488 
	C383.818573,649.597473 370.507935,640.162537 362.967499,623.758301 
	C360.667084,618.753662 357.942047,617.781677 353.298950,620.131348 
	C352.564178,622.904663 354.021729,625.263062 355.086884,628.448425 
M358.148956,601.693848 
	C358.608765,597.663147 359.068542,593.632507 359.574219,589.199585 
	C354.746277,594.691345 351.740570,603.897827 352.112610,611.528625 
	C352.198547,613.291565 351.851593,615.547974 354.697754,615.299927 
	C356.923126,615.106201 359.029327,614.536926 358.737701,611.471558 
	C358.456024,608.510620 358.302094,605.537659 358.148956,601.693848 
z"/>
<path fill="#FFFFFF" opacity="1.000000" stroke="none" 
	d="
M770.380920,528.132324 
	C770.362732,539.104492 770.290833,549.597534 770.342468,560.090027 
	C770.400085,571.809082 775.022095,575.302368 786.296082,572.099243 
	C788.494202,571.474670 789.554443,571.791992 790.479553,574.021606 
	C793.735535,581.869019 792.410767,584.756042 784.173523,586.992737 
	C767.793274,591.440552 755.830200,582.616699 754.547607,565.651062 
	C753.551880,552.479675 754.400269,539.354553 754.706787,526.216553 
	C754.810852,521.757874 753.661011,519.945007 748.886963,520.145752 
	C741.717102,520.447510 738.635193,515.355652 741.352661,508.617188 
	C741.979736,507.062195 743.078247,506.735687 744.475708,506.711578 
	C746.473633,506.677032 748.477356,506.582886 750.469299,506.688965 
	C753.463074,506.848328 754.705627,505.505005 754.657349,502.548035 
	C754.578430,497.719513 754.755920,492.885681 754.625488,488.059479 
	C754.538147,484.826569 755.904297,483.651184 759.078674,483.676910 
	C772.553955,483.785980 770.148376,482.725128 770.284729,494.274170 
	C770.430969,506.655792 770.324951,506.585541 782.596252,506.730377 
	C785.076721,506.759674 788.595581,505.297394 789.811401,508.258057 
	C791.106812,511.412750 790.644348,515.152649 789.973633,518.598145 
	C789.654968,520.235168 788.034851,520.221375 786.706055,520.244934 
	C783.709045,520.297974 780.710632,520.285034 777.712830,520.287476 
	C770.415039,520.293274 770.415039,520.290649 770.380920,528.132324 
z"/>
<path fill="#FFFFFF" opacity="1.000000" stroke="none" 
	d="
M399.469666,641.919739 
	C385.987885,637.810364 377.188080,629.433472 372.487335,616.527527 
	C375.434570,614.688049 378.138611,615.653015 380.709320,615.595764 
	C389.502869,615.400024 398.310730,616.019043 407.093567,615.190918 
	C410.740845,614.846985 412.235199,616.408264 412.138916,620.059814 
	C411.990143,625.702148 412.132690,631.351501 412.074707,636.997070 
	C412.015686,642.745056 410.963074,643.669189 405.249542,643.020325 
	C403.440063,642.814941 401.657104,642.376099 399.469666,641.919739 
z"/>
</svg>